<mxfile host="app.diagrams.net" modified="2023-11-30T17:04:45.190Z" agent="Mozilla/5.0 (Windows NT 10.0; Win64; x64; rv:120.0) Gecko/20100101 Firefox/120.0" etag="YUrB4FQG1Hit35dasl7z" version="22.1.5" type="device">
  <diagram name="Strona-1" id="DK6xHELxvSk7f4JCNxJK">
    <mxGraphModel dx="1050" dy="530" grid="1" gridSize="10" guides="1" tooltips="1" connect="1" arrows="1" fold="1" page="1" pageScale="1" pageWidth="827" pageHeight="1169" math="0" shadow="0">
      <root>
        <mxCell id="0" />
        <mxCell id="1" parent="0" />
        <mxCell id="2Rg5PpvAqTmXCK-v0Xln-5" value="Customer" style="swimlane;fontStyle=1;align=center;verticalAlign=top;childLayout=stackLayout;horizontal=1;startSize=26;horizontalStack=0;resizeParent=1;resizeParentMax=0;resizeLast=0;collapsible=1;marginBottom=0;whiteSpace=wrap;html=1;" vertex="1" parent="1">
          <mxGeometry x="130" y="270" width="160" height="150" as="geometry" />
        </mxCell>
        <mxCell id="2Rg5PpvAqTmXCK-v0Xln-6" value="&lt;div&gt;- customerId: string&lt;/div&gt;&lt;div&gt;- name: string&lt;/div&gt;&lt;div&gt;- wallet: float&lt;br&gt;&lt;/div&gt;&lt;div&gt;- inventory: Product[]&lt;br&gt;&lt;/div&gt;" style="text;strokeColor=none;fillColor=none;align=left;verticalAlign=top;spacingLeft=4;spacingRight=4;overflow=hidden;rotatable=0;points=[[0,0.5],[1,0.5]];portConstraint=eastwest;whiteSpace=wrap;html=1;" vertex="1" parent="2Rg5PpvAqTmXCK-v0Xln-5">
          <mxGeometry y="26" width="160" height="64" as="geometry" />
        </mxCell>
        <mxCell id="2Rg5PpvAqTmXCK-v0Xln-7" value="" style="line;strokeWidth=1;fillColor=none;align=left;verticalAlign=middle;spacingTop=-1;spacingLeft=3;spacingRight=3;rotatable=0;labelPosition=right;points=[];portConstraint=eastwest;strokeColor=inherit;" vertex="1" parent="2Rg5PpvAqTmXCK-v0Xln-5">
          <mxGeometry y="90" width="160" height="10" as="geometry" />
        </mxCell>
        <mxCell id="2Rg5PpvAqTmXCK-v0Xln-8" value="&lt;div&gt;+ buy(Seller, int)&lt;br&gt;&lt;/div&gt;&lt;div&gt;+ displayInventory()&lt;br&gt;&lt;/div&gt;&lt;div&gt;+ addToWallet(float)&lt;br&gt;&lt;/div&gt;" style="text;strokeColor=none;fillColor=none;align=left;verticalAlign=top;spacingLeft=4;spacingRight=4;overflow=hidden;rotatable=0;points=[[0,0.5],[1,0.5]];portConstraint=eastwest;whiteSpace=wrap;html=1;" vertex="1" parent="2Rg5PpvAqTmXCK-v0Xln-5">
          <mxGeometry y="100" width="160" height="50" as="geometry" />
        </mxCell>
        <mxCell id="2Rg5PpvAqTmXCK-v0Xln-9" value="Product" style="swimlane;fontStyle=1;align=center;verticalAlign=top;childLayout=stackLayout;horizontal=1;startSize=26;horizontalStack=0;resizeParent=1;resizeParentMax=0;resizeLast=0;collapsible=1;marginBottom=0;whiteSpace=wrap;html=1;" vertex="1" parent="1">
          <mxGeometry x="470" y="281" width="160" height="120" as="geometry" />
        </mxCell>
        <mxCell id="2Rg5PpvAqTmXCK-v0Xln-10" value="&lt;div&gt;- name: string&lt;/div&gt;&lt;div&gt;- price: float&lt;/div&gt;" style="text;strokeColor=none;fillColor=none;align=left;verticalAlign=top;spacingLeft=4;spacingRight=4;overflow=hidden;rotatable=0;points=[[0,0.5],[1,0.5]];portConstraint=eastwest;whiteSpace=wrap;html=1;" vertex="1" parent="2Rg5PpvAqTmXCK-v0Xln-9">
          <mxGeometry y="26" width="160" height="44" as="geometry" />
        </mxCell>
        <mxCell id="2Rg5PpvAqTmXCK-v0Xln-11" value="" style="line;strokeWidth=1;fillColor=none;align=left;verticalAlign=middle;spacingTop=-1;spacingLeft=3;spacingRight=3;rotatable=0;labelPosition=right;points=[];portConstraint=eastwest;strokeColor=inherit;" vertex="1" parent="2Rg5PpvAqTmXCK-v0Xln-9">
          <mxGeometry y="70" width="160" height="8" as="geometry" />
        </mxCell>
        <mxCell id="2Rg5PpvAqTmXCK-v0Xln-12" value="+ getPrice(): float&lt;br&gt;&lt;div&gt;+ toString(): string&lt;/div&gt;" style="text;strokeColor=none;fillColor=none;align=left;verticalAlign=top;spacingLeft=4;spacingRight=4;overflow=hidden;rotatable=0;points=[[0,0.5],[1,0.5]];portConstraint=eastwest;whiteSpace=wrap;html=1;" vertex="1" parent="2Rg5PpvAqTmXCK-v0Xln-9">
          <mxGeometry y="78" width="160" height="42" as="geometry" />
        </mxCell>
        <mxCell id="2Rg5PpvAqTmXCK-v0Xln-1" value="Seller" style="swimlane;fontStyle=1;align=center;verticalAlign=top;childLayout=stackLayout;horizontal=1;startSize=26;horizontalStack=0;resizeParent=1;resizeParentMax=0;resizeLast=0;collapsible=1;marginBottom=0;whiteSpace=wrap;html=1;" vertex="1" parent="1">
          <mxGeometry x="320" y="90" width="160" height="170" as="geometry" />
        </mxCell>
        <mxCell id="2Rg5PpvAqTmXCK-v0Xln-2" value="&lt;div&gt;- sellerId: string&lt;/div&gt;&lt;div&gt;- name: string&lt;/div&gt;&lt;div&gt;- productList: Product[]&lt;br&gt;&lt;/div&gt;&lt;div&gt;- revenue: float&lt;br&gt;&lt;/div&gt;" style="text;strokeColor=none;fillColor=none;align=left;verticalAlign=top;spacingLeft=4;spacingRight=4;overflow=hidden;rotatable=0;points=[[0,0.5],[1,0.5]];portConstraint=eastwest;whiteSpace=wrap;html=1;" vertex="1" parent="2Rg5PpvAqTmXCK-v0Xln-1">
          <mxGeometry y="26" width="160" height="64" as="geometry" />
        </mxCell>
        <mxCell id="2Rg5PpvAqTmXCK-v0Xln-3" value="" style="line;strokeWidth=1;fillColor=none;align=left;verticalAlign=middle;spacingTop=-1;spacingLeft=3;spacingRight=3;rotatable=0;labelPosition=right;points=[];portConstraint=eastwest;strokeColor=inherit;" vertex="1" parent="2Rg5PpvAqTmXCK-v0Xln-1">
          <mxGeometry y="90" width="160" height="8" as="geometry" />
        </mxCell>
        <mxCell id="2Rg5PpvAqTmXCK-v0Xln-4" value="&lt;div&gt;+ addOffer(Product)&lt;/div&gt;&lt;div&gt;+ sellOffer(int): Product&lt;br&gt;&lt;/div&gt;&lt;div&gt;+ displayProducts()&lt;/div&gt;&lt;div&gt;+ getProductList: Product[]&lt;br&gt;&lt;/div&gt;" style="text;strokeColor=none;fillColor=none;align=left;verticalAlign=top;spacingLeft=4;spacingRight=4;overflow=hidden;rotatable=0;points=[[0,0.5],[1,0.5]];portConstraint=eastwest;whiteSpace=wrap;html=1;" vertex="1" parent="2Rg5PpvAqTmXCK-v0Xln-1">
          <mxGeometry y="98" width="160" height="72" as="geometry" />
        </mxCell>
      </root>
    </mxGraphModel>
  </diagram>
</mxfile>
